# xmcd
#
# Track frame offsets:
#	150
#	14769
#	45136
#	76335
#	78518
#	79065
#
# Disc length: 1370 seconds
#
# Revision: 1
# Processed by: cddbd v1.5.2PL0 Copyright (c) Steve Scherf et al.
# Submitted via: audiograbber 1.83.01
#
DISCID=37055806
DTITLE=Re-Flex - Headbangers Go
DYEAR=2002
DGENRE=Dance
TTITLE0=Headbangers Go (Radio Mix)
TTITLE1=Headbangers Go (Clubbgroover's Bangmix)
TTITLE2=Headbangers Go (MPT Clubbmix)
TTITLE3=Headbangers Go (Bang-a-pella)
TTITLE4=Headbangers Go (Headbanger's Scream)
TTITLE5=Babadeng (Club Bouncer's Porn Remix)
EXTD=
EXTT0=
EXTT1=
EXTT2=
EXTT3=
EXTT4=
EXTT5=
PLAYORDER=
